<svg width="593" height="206" viewBox="0 0 593 206" fill="none" xmlns="http://www.w3.org/2000/svg">
<rect width="593" height="206" fill="black"/>
<path d="M59.6415 40H145.359C147.918 40 150 42.0753 150 44.6255V162.374C150 164.925 147.918 167 145.359 167H59.6415C57.0825 167 55 164.925 55 162.374V44.6255C55.0176 42.0753 57.0825 40 59.6415 40Z" fill="white"/>
<path d="M141.688 168.809H62.6027C57.3084 168.809 53.0183 164.519 53.0183 159.225V46.5844C53.0183 41.2902 57.3267 37 62.6027 37H141.688C146.982 37 151.273 41.2902 151.273 46.5844V159.225C151.273 164.519 146.964 168.809 141.688 168.809ZM62.6027 46.5844V159.225H141.688V46.5844H62.6027Z" fill="#2F2F33"/>
<path d="M87.8874 56.1689H116.403C126.389 56.1689 134.495 64.2746 134.495 74.2607V121.946C134.495 131.932 126.389 140.037 116.403 140.037H87.8874C77.9013 140.037 69.7956 131.932 69.7956 121.946V74.2607C69.7956 64.2746 77.883 56.1689 87.8874 56.1689Z" fill="#8CAAFF"/>
<path d="M124.911 140.056H79.38C74.0858 140.056 69.7956 135.765 69.7956 130.471V65.7716C69.7956 60.4773 74.104 56.1871 79.38 56.1871H124.911C130.205 56.1871 134.495 60.4773 134.495 65.7716V130.471C134.495 135.747 130.187 140.056 124.911 140.056ZM79.38 65.7533V130.471H124.911V65.7716H79.38V65.7533ZM96.1574 144.839H108.133C110.781 144.839 112.935 146.993 112.935 149.64C112.935 152.287 110.781 154.441 108.133 154.441H96.1574C93.5103 154.441 91.356 152.287 91.356 149.64C91.356 146.993 93.5103 144.839 96.1574 144.839Z" fill="#2F2F33"/>
<path d="M219.405 88.9536C219.405 91.8924 220.495 94.0255 222.675 95.3527C224.856 96.9644 229.501 98.6234 236.611 100.33C244.101 102.131 249.552 104.596 252.965 107.724C256.472 110.853 258.226 115.356 258.226 121.234C258.226 127.396 255.904 132.373 251.258 136.165C246.708 139.957 240.735 141.853 233.341 141.853C222.628 141.853 212.958 138.061 204.331 130.477L211.726 121.66C218.931 127.822 226.23 130.904 233.625 130.904C237.322 130.904 240.309 130.098 242.584 128.486C244.859 126.78 245.997 124.599 245.997 121.945C245.997 119.29 244.954 117.205 242.868 115.688C240.877 114.171 237.275 112.796 232.061 111.564C223.055 109.478 216.798 107.013 213.29 104.169C209.213 101.041 207.175 96.2534 207.175 89.8068C207.175 83.5499 209.45 78.6675 214.001 75.1599C218.551 71.5574 224.382 69.7561 231.492 69.7561C241.067 69.7561 249.267 72.5528 256.093 78.1461L249.836 86.9627C247.751 85.0667 244.954 83.5499 241.446 82.4122C237.939 81.1798 234.478 80.5636 231.065 80.5636C227.558 80.5636 224.714 81.322 222.533 82.8388C220.447 84.2609 219.405 86.2991 219.405 88.9536ZM302.171 80.4214C295.25 80.4214 289.42 82.8862 284.68 87.816C279.94 92.7457 277.569 98.7182 277.569 105.734C277.569 112.749 279.94 118.721 284.68 123.651C289.42 128.486 295.25 130.904 302.171 130.904C309.091 130.904 314.922 128.486 319.662 123.651C324.402 118.721 326.772 112.749 326.772 105.734C326.772 98.7182 324.402 92.7457 319.662 87.816C314.922 82.8862 309.091 80.4214 302.171 80.4214ZM302.171 141.711C291.742 141.711 283.021 138.298 276.005 131.472C268.99 124.552 265.482 115.972 265.482 105.734C265.482 95.4949 268.99 86.9627 276.005 80.137C283.021 73.2164 291.742 69.7561 302.171 69.7561C312.599 69.7561 321.321 73.2164 328.336 80.137C335.351 86.9627 338.859 95.4949 338.859 105.734C338.859 115.972 335.304 124.504 328.194 131.33C321.084 138.251 312.409 141.711 302.171 141.711ZM402.261 121.803L409.798 129.482C402.593 137.729 393.681 141.853 383.063 141.853C372.54 141.853 363.771 138.488 356.756 131.757C349.835 124.931 346.375 116.351 346.375 106.018C346.375 95.5897 349.93 86.9627 357.04 80.137C364.15 73.2164 373.109 69.7561 383.917 69.7561C394.534 69.7561 403.493 73.7378 410.793 81.7012L403.398 89.8068C400.08 86.5835 396.952 84.3557 394.013 83.1232C391.074 81.8908 387.614 81.2746 383.632 81.2746C376.522 81.2746 370.549 83.5499 365.715 88.1004C360.974 92.6509 358.604 98.4338 358.604 105.449C358.604 112.37 360.974 118.247 365.715 123.082C370.455 127.917 376.095 130.335 382.637 130.335C386.618 130.335 390.031 129.671 392.875 128.344C395.814 127.017 398.943 124.836 402.261 121.803ZM421.446 71.4626H433.249V141H421.446V71.4626ZM481.807 80.4214C474.886 80.4214 469.056 82.8862 464.316 87.816C459.576 92.7457 457.206 98.7182 457.206 105.734C457.206 112.749 459.576 118.721 464.316 123.651C469.056 128.486 474.886 130.904 481.807 130.904C488.728 130.904 494.558 128.486 499.298 123.651C504.038 118.721 506.408 112.749 506.408 105.734C506.408 98.7182 504.038 92.7457 499.298 87.816C494.558 82.8862 488.728 80.4214 481.807 80.4214ZM481.807 141.711C471.379 141.711 462.657 138.298 455.642 131.472C448.626 124.552 445.119 115.972 445.119 105.734C445.119 95.4949 448.626 86.9627 455.642 80.137C462.657 73.2164 471.379 69.7561 481.807 69.7561C492.235 69.7561 500.957 73.2164 507.972 80.137C514.988 86.9627 518.495 95.4949 518.495 105.734C518.495 115.972 514.94 124.504 507.83 131.33C500.72 138.251 492.046 141.711 481.807 141.711Z" fill="#FDFDFD"/>
</svg>
