<svg width="99" height="132" viewBox="0 0 99 132" fill="none" xmlns="http://www.w3.org/2000/svg">
<path d="M6.64146 3H92.3585C94.9175 3 97 5.07534 97 7.62554V125.374C97 127.925 94.9175 130 92.3585 130H6.64146C4.08248 130 2 127.925 2 125.374V7.62554C2.01765 5.07534 4.08248 3 6.64146 3Z" fill="white"/>
<path d="M88.6881 131.809H9.6027C4.30844 131.809 0.0182571 127.519 0.0182571 122.225V9.58445C0.0182571 4.29018 4.32669 0 9.6027 0H88.6881C93.9823 0 98.2725 4.29018 98.2725 9.58445V122.225C98.2725 127.519 93.9641 131.809 88.6881 131.809ZM9.6027 9.58445V122.225H88.6881V9.58445H9.6027Z" fill="#2F2F33"/>
<path d="M34.8874 19.1689H63.4034C73.3895 19.1689 81.4952 27.2746 81.4952 37.2607V84.9456C81.4952 94.9317 73.3895 103.037 63.4034 103.037H34.8874C24.9013 103.037 16.7956 94.9317 16.7956 84.9456V37.2607C16.7956 27.2746 24.883 19.1689 34.8874 19.1689Z" fill="#8CAAFF"/>
<path d="M71.9107 103.056H26.38C21.0858 103.056 16.7956 98.7654 16.7956 93.4712V28.7716C16.7956 23.4773 21.104 19.1871 26.38 19.1871H71.9107C77.205 19.1871 81.4952 23.4773 81.4952 28.7716V93.4712C81.4952 98.7472 77.1867 103.056 71.9107 103.056ZM26.38 28.7533V93.4712H71.9107V28.7716H26.38V28.7533ZM43.1574 107.839H55.1334C57.7805 107.839 59.9347 109.993 59.9347 112.64C59.9347 115.287 57.7805 117.441 55.1334 117.441H43.1574C40.5103 117.441 38.356 115.287 38.356 112.64C38.356 109.993 40.5103 107.839 43.1574 107.839Z" fill="#2F2F33"/>
</svg>
